<?xml version="1.0" standalone="no"?>
<!DOCTYPE svg PUBLIC "-//W3C//DTD SVG 20010904//EN"
 "http://www.w3.org/TR/2001/REC-SVG-20010904/DTD/svg10.dtd">
<svg version="1.0" xmlns="http://www.w3.org/2000/svg"
 width="300.000000pt" height="225.000000pt" viewBox="0 0 300.000000 225.000000"
 preserveAspectRatio="xMidYMid meet">
<metadata>
Created by potrace 1.15, written by Peter Selinger 2001-2017
</metadata>
<g transform="translate(0.000000,225.000000) scale(0.100000,-0.100000)"
fill="#252831" stroke="none">
<path d="M2806 2212 c-27 -20 -56 -41 -65 -47 -16 -10 -104 -77 -154 -117 -16
-13 -39 -30 -51 -38 -58 -39 -123 -88 -157 -117 -20 -18 -39 -33 -43 -33 -3 0
-32 -20 -64 -45 l-57 -45 -902 0 -903 0 0 -675 0 -675 -37 -24 c-21 -13 -47
-33 -57 -45 -11 -11 -23 -21 -28 -21 -5 0 -35 -20 -66 -45 -31 -24 -73 -56
-92 -70 -139 -103 -130 -92 -130 -156 l0 -59 50 0 c44 0 58 5 107 43 30 23 63
47 72 52 16 10 103 76 154 117 16 13 39 30 51 38 52 35 122 87 155 115 20 17
46 36 58 43 18 9 241 12 1023 12 l1000 0 0 675 0 675 -101 0 -101 0 48 35 c27
19 65 46 84 59 19 13 44 33 54 45 11 11 23 21 28 21 5 0 35 20 66 45 65 50
105 81 191 145 58 42 61 47 61 87 l0 43 -72 0 c-69 0 -76 -3 -122 -38z m-1103
-631 c32 -11 80 -32 107 -47 l50 -27 -31 -23 -32 -23 -46 23 c-189 96 -414 67
-564 -72 -114 -107 -163 -227 -154 -379 3 -48 8 -98 12 -109 5 -17 0 -26 -23
-43 l-30 -21 -17 47 c-23 65 -30 195 -16 266 44 207 223 379 446 427 66 15
233 4 298 -19z m358 -341 c26 -69 35 -196 20 -273 -28 -131 -131 -277 -245
-346 -110 -66 -177 -85 -311 -85 -136 -1 -206 17 -311 80 -55 33 -134 100
-134 114 0 4 11 13 25 20 23 12 28 10 78 -37 188 -178 486 -178 673 -1 105 99
154 210 154 348 0 89 -26 185 -65 242 -31 46 -31 52 3 76 l27 21 33 -52 c18
-28 42 -76 53 -107z"/>
</g>
</svg>
