<svg version="1" xmlns="http://www.w3.org/2000/svg" width="400" height="300" viewBox="0 0 300 225" preserveAspectRatio="xMidYMid meet"><path d="M280.6 3.8c-2.7 2-5.6 4.1-6.5 4.7-1.6 1-10.4 7.7-15.4 11.7-1.6 1.3-3.9 3-5.1 3.8-5.8 3.9-12.3 8.8-15.7 11.7-2 1.8-3.9 3.3-4.3 3.3-.3 0-3.2 2-6.4 4.5l-5.7 4.5H41v135l-3.7 2.4c-2.1 1.3-4.7 3.3-5.7 4.5-1.1 1.1-2.3 2.1-2.8 2.1s-3.5 2-6.6 4.5c-3.1 2.4-7.3 5.6-9.2 7-13.9 10.3-13 9.2-13 15.6v5.9h5c4.4 0 5.8-.5 10.7-4.3 3-2.3 6.3-4.7 7.2-5.2 1.6-1 10.3-7.6 15.4-11.7 1.6-1.3 3.9-3 5.1-3.8 5.2-3.5 12.2-8.7 15.5-11.5 2-1.7 4.6-3.6 5.8-4.3 1.8-.9 24.1-1.2 102.3-1.2h100V48h-20.2l4.8-3.5c2.7-1.9 6.5-4.6 8.4-5.9 1.9-1.3 4.4-3.3 5.4-4.5 1.1-1.1 2.3-2.1 2.8-2.1s3.5-2 6.6-4.5c6.5-5 10.5-8.1 19.1-14.5 5.8-4.2 6.1-4.7 6.1-8.7V0h-7.2c-6.9 0-7.6.3-12.2 3.8zM170.3 66.9c3.2 1.1 8 3.2 10.7 4.7l5 2.7-3.1 2.3-3.2 2.3-4.6-2.3c-18.9-9.6-41.4-6.7-56.4 7.2-11.4 10.7-16.3 22.7-15.4 37.9.3 4.8.8 9.8 1.2 10.9.5 1.7 0 2.6-2.3 4.3l-3 2.1-1.7-4.7c-2.3-6.5-3-19.5-1.6-26.6 4.4-20.7 22.3-37.9 44.6-42.7 6.6-1.5 23.3-.4 29.8 1.9zm35.8 34.1c2.6 6.9 3.5 19.6 2 27.3-2.8 13.1-13.1 27.7-24.5 34.6-11 6.6-17.7 8.5-31.1 8.5-13.6.1-20.6-1.7-31.1-8-5.5-3.3-13.4-10-13.4-11.4 0-.4 1.1-1.3 2.5-2 2.3-1.2 2.8-1 7.8 3.7 18.8 17.8 48.6 17.8 67.3.1 10.5-9.9 15.4-21 15.4-34.8 0-8.9-2.6-18.5-6.5-24.2-3.1-4.6-3.1-5.2.3-7.6l2.7-2.1 3.3 5.2c1.8 2.8 4.2 7.6 5.3 10.7z" fill="#252831" stroke="none"/></svg>